<svg width="68" height="20" viewBox="0 0 68 20" fill="none" xmlns="http://www.w3.org/2000/svg">
<path d="M57.046 4.334H60.06L59.752 5.742L59.796 5.786C60.148 5.17 60.6246 4.72267 61.226 4.444C61.842 4.16533 62.502 4.026 63.206 4.026C64.5846 4.026 65.648 4.42933 66.396 5.236C67.144 6.04267 67.518 7.13533 67.518 8.514C67.518 9.45267 67.3933 10.3693 67.144 11.264C66.8946 12.1587 66.5133 12.958 66 13.662C65.4866 14.366 64.8413 14.9307 64.064 15.356C63.3013 15.7813 62.392 15.994 61.336 15.994C61.0133 15.994 60.6833 15.9573 60.346 15.884C60.0233 15.8107 59.7153 15.7007 59.422 15.554C59.1433 15.4073 58.8866 15.224 58.652 15.004C58.432 14.7693 58.2633 14.498 58.146 14.19H58.08L56.892 19.69H53.79L57.046 4.334ZM62.172 6.38C61.5853 6.38 61.0793 6.54133 60.654 6.864C60.2286 7.172 59.8693 7.568 59.576 8.052C59.2973 8.536 59.0846 9.064 58.938 9.636C58.806 10.1933 58.74 10.714 58.74 11.198C58.74 11.946 58.9233 12.5473 59.29 13.002C59.6566 13.442 60.2213 13.662 60.984 13.662C61.5853 13.662 62.0986 13.508 62.524 13.2C62.9493 12.892 63.3013 12.5033 63.58 12.034C63.8586 11.5647 64.064 11.0513 64.196 10.494C64.328 9.93667 64.394 9.40867 64.394 8.91C64.394 8.57267 64.3426 8.25 64.24 7.942C64.152 7.634 64.0126 7.37 63.822 7.15C63.646 6.91533 63.4186 6.732 63.14 6.6C62.8613 6.45333 62.5386 6.38 62.172 6.38Z" fill="white"/>
<path d="M45.3689 11.11C45.3689 11.4473 45.4129 11.77 45.5009 12.078C45.6036 12.386 45.7503 12.6573 45.9409 12.892C46.1316 13.1267 46.3663 13.3173 46.6449 13.464C46.9236 13.596 47.2463 13.662 47.6129 13.662C48.1996 13.662 48.6983 13.508 49.1089 13.2C49.5343 12.8773 49.8789 12.4813 50.1429 12.012C50.4216 11.528 50.6269 11.0073 50.7589 10.45C50.8909 9.89267 50.9569 9.372 50.9569 8.888C50.9569 8.12533 50.7809 7.51667 50.4289 7.062C50.0916 6.60733 49.5049 6.38 48.6689 6.38C48.0969 6.38 47.5983 6.54133 47.1729 6.864C46.7623 7.172 46.4249 7.56067 46.1609 8.03C45.8969 8.49933 45.6989 9.01267 45.5669 9.57C45.4349 10.1127 45.3689 10.626 45.3689 11.11ZM42.2449 11.11C42.2449 10.142 42.3916 9.23267 42.6849 8.382C42.9929 7.51667 43.4256 6.76133 43.9829 6.116C44.5549 5.47067 45.2443 4.96467 46.0509 4.598C46.8576 4.21667 47.7669 4.026 48.7789 4.026C49.5563 4.026 50.2676 4.12867 50.9129 4.334C51.5729 4.52467 52.1376 4.818 52.6069 5.214C53.0763 5.61 53.4356 6.10867 53.6849 6.71C53.9489 7.31133 54.0809 8.02267 54.0809 8.844C54.0809 9.84133 53.9269 10.78 53.6189 11.66C53.3256 12.5253 52.8929 13.2807 52.3209 13.926C51.7489 14.5713 51.0523 15.0773 50.2309 15.444C49.4243 15.8107 48.5003 15.994 47.4589 15.994C45.8749 15.994 44.6063 15.5907 43.6529 14.784C42.7143 13.9627 42.2449 12.738 42.2449 11.11Z" fill="white"/>
<path d="M31.6117 0H34.7357L33.5697 5.544H33.6137C34.0977 5.016 34.5891 4.63467 35.0877 4.4C35.6011 4.15067 36.2317 4.026 36.9797 4.026C37.7131 4.026 38.3364 4.158 38.8497 4.422C39.3631 4.67133 39.7811 5.016 40.1037 5.456C40.4411 5.896 40.6831 6.40933 40.8297 6.996C40.9911 7.58267 41.0717 8.206 41.0717 8.866C41.0717 9.746 40.9471 10.6187 40.6977 11.484C40.4484 12.3347 40.0744 13.0973 39.5757 13.772C39.0771 14.432 38.4611 14.9673 37.7277 15.378C36.9944 15.7887 36.1437 15.994 35.1757 15.994C34.3837 15.994 33.6577 15.8473 32.9977 15.554C32.3524 15.2607 31.8904 14.718 31.6117 13.926H31.5677L31.1937 15.708H28.3337L31.6117 0ZM35.7257 6.38C35.1097 6.38 34.5891 6.54133 34.1637 6.864C33.7384 7.18667 33.3864 7.59 33.1077 8.074C32.8437 8.558 32.6457 9.086 32.5137 9.658C32.3964 10.23 32.3377 10.7653 32.3377 11.264C32.3377 11.968 32.5357 12.5473 32.9317 13.002C33.3277 13.442 33.8851 13.662 34.6037 13.662C35.2051 13.662 35.7111 13.508 36.1217 13.2C36.5471 12.892 36.8917 12.5033 37.1557 12.034C37.4344 11.55 37.6324 11.0293 37.7497 10.472C37.8817 9.91467 37.9477 9.394 37.9477 8.91C37.9477 8.19133 37.7791 7.59 37.4417 7.106C37.1044 6.622 36.5324 6.38 35.7257 6.38Z" fill="white"/>
<path d="M24.7209 8.8C24.7209 8.50667 24.6916 8.22067 24.6329 7.942C24.5889 7.64867 24.4936 7.38467 24.3469 7.15C24.2002 6.91533 23.9876 6.732 23.7089 6.6C23.4302 6.45333 23.0636 6.38 22.6089 6.38C22.1689 6.38 21.7802 6.446 21.4429 6.578C21.1056 6.71 20.8122 6.886 20.5629 7.106C20.3136 7.326 20.1009 7.58267 19.9249 7.876C19.7636 8.16933 19.6242 8.47733 19.5069 8.8H24.7209ZM19.1769 10.78C19.1622 10.8533 19.1549 10.9193 19.1549 10.978C19.1549 11.0367 19.1549 11.0953 19.1549 11.154V11.44C19.1549 12.1 19.3602 12.6353 19.7709 13.046C20.1816 13.4567 20.8122 13.662 21.6629 13.662C21.9709 13.662 22.2422 13.618 22.4769 13.53C22.7262 13.4273 22.9389 13.3027 23.1149 13.156C23.3056 13.0093 23.4669 12.8407 23.5989 12.65C23.7456 12.4593 23.8776 12.276 23.9949 12.1H27.1189C26.8696 12.7453 26.5762 13.31 26.2389 13.794C25.9016 14.278 25.4982 14.6887 25.0289 15.026C24.5596 15.3487 24.0096 15.5907 23.3789 15.752C22.7629 15.9133 22.0442 15.994 21.2229 15.994C20.4602 15.994 19.7636 15.8913 19.1329 15.686C18.5169 15.4807 17.9889 15.1727 17.5489 14.762C17.1089 14.3367 16.7642 13.816 16.5149 13.2C16.2802 12.584 16.1629 11.8653 16.1629 11.044C16.1629 10.1347 16.3096 9.262 16.6029 8.426C16.8962 7.57533 17.3069 6.82733 17.8349 6.182C18.3776 5.522 19.0376 5.00133 19.8149 4.62C20.5922 4.224 21.4649 4.026 22.4329 4.026C23.2249 4.026 23.9436 4.12867 24.5889 4.334C25.2489 4.53933 25.8062 4.85467 26.2609 5.28C26.7302 5.69067 27.0896 6.21133 27.3389 6.842C27.6029 7.458 27.7349 8.17667 27.7349 8.998C27.7349 9.55533 27.6762 10.1493 27.5589 10.78H19.1769Z" fill="white"/>
<path d="M5.28 6.358H9.196C9.82667 6.358 10.3693 6.18933 10.824 5.852C11.2933 5.5 11.528 4.97933 11.528 4.29C11.528 3.674 11.3593 3.256 11.022 3.036C10.6993 2.80133 10.2593 2.684 9.702 2.684H6.05L5.28 6.358ZM3.278 0H9.878C10.67 0 11.3813 0.0513337 12.012 0.154001C12.6427 0.256667 13.178 0.447333 13.618 0.726C14.058 0.99 14.3953 1.364 14.63 1.848C14.8647 2.31733 14.982 2.926 14.982 3.674C14.982 4.114 14.916 4.54667 14.784 4.972C14.652 5.38267 14.454 5.75667 14.19 6.094C13.9407 6.41667 13.6327 6.688 13.266 6.908C12.914 7.128 12.5033 7.26733 12.034 7.326V7.37C12.782 7.57533 13.354 7.97133 13.75 8.558C14.1607 9.13 14.366 9.79733 14.366 10.56C14.366 11.4107 14.1973 12.1587 13.86 12.804C13.5373 13.4493 13.0973 13.9847 12.54 14.41C11.9827 14.8353 11.3447 15.158 10.626 15.378C9.90733 15.598 9.152 15.708 8.36 15.708H0L3.278 0ZM3.872 13.024H8.206C8.998 13.024 9.64333 12.8113 10.142 12.386C10.6553 11.9607 10.912 11.33 10.912 10.494C10.912 10.0833 10.824 9.76067 10.648 9.526C10.4867 9.29133 10.274 9.11533 10.01 8.998C9.746 8.866 9.45267 8.78533 9.13 8.756C8.80733 8.72667 8.492 8.712 8.184 8.712H4.796L3.872 13.024Z" fill="white"/>
</svg>
